<svg xmlns="http://www.w3.org/2000/svg" viewBox="0 0 1440 320" preserveAspectRatio="none">
  <path fill="rgba(0,100,200,0.1)" fill-opacity="1" d="M0,32L48,53.3C96,75,192,117,288,138.7C384,160,480,160,576,138.7C672,117,768,75,864,74.7C960,75,1056,117,1152,122.7C1248,128,1344,96,1392,80L1440,64L1440,320L1392,320C1344,320,1248,320,1152,320C1056,320,960,320,864,320C768,320,672,320,576,320C480,320,384,320,288,320C192,320,96,320,48,320L0,320Z"></path>
  <path fill="rgba(0,100,200,0.2)" fill-opacity="1" d="M0,192L48,181.3C96,171,192,149,288,154.7C384,160,480,192,576,192C672,192,768,160,864,154.7C960,149,1056,171,1152,181.3C1248,192,1344,192,1392,192L1440,192L1440,320L1392,320C1344,320,1248,320,1152,320C1056,320,960,320,864,320C768,320,672,320,576,320C480,320,384,320,288,320C192,320,96,320,48,320L0,320Z"></path>
</svg>
